<?xml version="1.0" encoding="utf-8"?>
<!-- Generator: Adobe Illustrator 25.0.1, SVG Export Plug-In . SVG Version: 6.00 Build 0)  -->
<svg version="1.1" xmlns="http://www.w3.org/2000/svg" xmlns:xlink="http://www.w3.org/1999/xlink" x="0px" y="0px"
	 viewBox="0 0 1920 480" style="enable-background:new 0 0 1920 480;" xml:space="preserve">
<style type="text/css">
	.st0{fill:#371089;}
	.st1{clip-path:url(#SVGID_2_);fill:#5F26EA;}
	.st2{fill:#281565;}
	.st3{fill:#220F56;}
	.st4{fill:#67F1F4;}
	.st5{fill:#67BBC1;}
	.st6{fill:#22213D;}
	.st7{clip-path:url(#SVGID_4_);}
	.st8{fill:#B76D89;}
	.st9{fill:#FFFFFF;}
	.st10{fill:#E4E4E0;}
	.st11{fill:#F2F2F2;}
	.st12{fill:#EBA4B9;}
	.st13{fill:#DD89AC;}
	.st14{fill:#383E6E;}
	.st15{fill:#4E5687;}
	.st16{fill:#8B93C2;}
	.st17{opacity:0.7;}
	.st18{fill:#ABF2FB;}
	.st19{fill:#97E3ED;}
	.st20{opacity:0.5;}
	.st21{fill:#D055AB;}
	.st22{opacity:0.8;}
	.st23{opacity:0.3;fill:#FFFFFF;}
	.st24{fill:url(#SVGID_5_);}
	.st25{fill:url(#SVGID_6_);}
	.st26{fill:url(#SVGID_7_);}
	.st27{fill:url(#SVGID_8_);}
	.st28{fill:url(#SVGID_9_);}
	.st29{fill:url(#SVGID_10_);}
	.st30{fill:#DD76F7;}
	.st31{display:none;fill:#FFFFFF;}
	.st32{font-family:'KronaOne-Regular';}
	.st33{font-size:65.7122px;}
	.st34{fill:#DB76F5;}
</style>
<g id="BACKGROUND">
	<rect class="st0" width="1920" height="480"/>
</g>
<g id="OBJECTS">
	<g>
		<defs>
			<rect id="SVGID_1_" width="1920" height="480"/>
		</defs>
		<clipPath id="SVGID_2_">
			<use xlink:href="#SVGID_1_"  style="overflow:visible;"/>
		</clipPath>
		<circle class="st1" cx="951.6" cy="353.5" r="203.1"/>
	</g>
	<g>
		<rect y="420.9" class="st2" width="1920" height="59.1"/>
		<polygon class="st3" points="1891.7,379.6 1891.7,310.2 1864.3,310.2 1864.3,264.3 1774.3,264.3 1774.3,379.6 1764.3,379.6 
			1764.3,335.6 1740.1,335.6 1740.1,297.6 1723,297.6 1723,248 1691.7,248 1691.7,297.6 1658.3,297.6 1658.3,335.6 1634.3,335.6 
			1634.3,373.4 1570.5,373.4 1570.5,287.6 1483.9,287.6 1483.9,323.7 1416.6,323.7 1416.6,371.3 1292.4,371.3 1292.4,356.3 
			1206.2,356.3 1206.2,335.8 1151.6,335.8 1151.6,401.5 1141.3,401.5 1141.3,392.7 1117.2,392.7 1117.2,361.2 1099.6,361.2 
			1099.6,344.5 1042.2,344.5 1042.2,357.2 1035,357.2 1035,319.7 1021.1,319.7 1021.1,309 962.5,309 962.5,339.3 934.7,339.3 
			934.7,369.2 916.6,369.2 916.6,347.7 893.6,347.7 893.6,274.3 815.1,274.3 815.1,383.5 806.6,383.5 806.6,371.2 784.2,371.2 
			784.2,320.5 762.5,320.5 762.5,287.9 709.9,287.9 709.9,319.3 696.6,319.3 696.6,350 663.4,350 663.4,392.7 654.9,392.7 
			654.9,362.4 641.7,362.4 641.7,356 580.6,356 580.6,373.6 552.8,373.6 552.8,393.9 535.9,393.9 535.9,379.1 511.8,379.1 
			511.8,335.7 435.6,335.7 435.6,403.9 424.7,403.9 424.7,394.7 405.4,394.7 405.4,362 384.9,362 384.9,343.7 332.9,343.7 
			332.9,356 311.2,356 311.2,374.4 284,374.4 284,395.1 262.8,395.1 262.8,379.9 239.3,379.9 239.3,336.1 161.9,336.1 161.9,320.9 
			147.4,320.9 147.4,308.2 88.8,308.2 88.8,340.5 58.6,340.5 58.6,365.2 41.7,365.2 41.7,345.3 0,345.3 0,420.9 1206.2,420.9 
			1292.4,420.9 1292.4,420.8 1416.6,420.8 1419.3,420.8 1483.9,420.8 1505.8,420.8 1560.7,420.8 1570.5,420.8 1634.3,420.8 
			1642.3,420.8 1740.1,420.8 1740.1,420.9 1774.3,420.9 1841.7,420.9 1864.3,420.9 1891.7,420.9 1920,420.9 1920,379.6 		"/>
	</g>
	<g>
		<g>
			<g>
				<ellipse class="st4" cx="1231.3" cy="432" rx="176.2" ry="18.8"/>
				<ellipse class="st5" cx="1231.3" cy="432" rx="166.8" ry="17.8"/>
				<ellipse class="st6" cx="1231.3" cy="430" rx="145" ry="13.4"/>
			</g>
			<g>
				<defs>
					<path id="SVGID_3_" d="M1408.7,273c-0.6-15.4-8-30.9-21-39.1c-13-8.3-31.3-12.2-42.7-1.8c-8.7-6.6-19.8-9.5-30.7-10.1
						c-10.9-0.6-23.9,1.4-34.7,2.9c11.3-23.8,20.8-49,22.2-75.4c1.4-26.3-6.2-54-24.9-72.6c-23.3-23-59.6-28-91.7-22
						c-16.2,3.1-32.9,9.3-42.6,22.6c-7.3,10-9.7,22.6-10.5,35c-2.7,41.2,11.8,83,38.8,114.3c-28.5,0.2-56.5,12.9-75.4,34.3
						c-6.8-16.4-13.7-33-24.7-47c-11-14-26.7-25.1-44.4-26.6c-17.7-1.5-36.8,8.9-41.8,25.9c-3.9,13.3,1.2,27.9,10,38.5
						s21.3,16.8,33.3,23.7c2.8,27.7,9,55.1,18.3,81.3c3.7,10.3,7.8,20.5,14.3,29.3c6.4,8.8,15.3,16.2,25.8,19.2
						c11.2,3.1,23.4,0.8,33.6-4.6c10.2-5.5,18.4-15.1,25.3-24.5c2.4,14,3,28.4,1.8,42.6c-36.7,2.4-60.5,6.4-60.5,10.9
						c0,7.4,64.9,13.4,145,13.4s145-6,145-13.4c0-1.4-2.3-2.8-6.7-4c3.3-2.1,6-5.1,8.1-8.4c3.5-5.5,5.4-11.8,7-18.1
						c6.8-26.2,10.5-56,10.4-83.1C1403.7,303.6,1409.3,288.4,1408.7,273z"/>
				</defs>
				<clipPath id="SVGID_4_">
					<use xlink:href="#SVGID_3_"  style="overflow:visible;"/>
				</clipPath>
				<g class="st7">
					<g>
						<path class="st8" d="M1013,209.1L1013,209.1c2.9-1.5,6.5-0.6,8.3,2.2l21.5,31.4l-15.9,3.2l-16.5-27.6
							C1008.5,215,1009.7,210.8,1013,209.1z"/>
						<g>
							<path class="st9" d="M1152,239L1152,239c-17.3,2.3-31.7,14.7-36.4,31.5l-19,67.2l-35.8,27.6l1.9,6.3
								c4.8,15.9,20,26.4,36.6,25.3l0,0c12.4-0.9,23.5-8.1,29.2-19.2l26-50.2L1152,239z"/>
							<path class="st10" d="M1107.6,371.5l-11.1-33.9l5.8-20.6c2.3,0,3.7,3.3,4.1,5.5c0.5,2.2,0.1,4.6-0.5,6.8s-1.2,4.4-1.4,6.7
								c-0.6,7.5,4.5,14.2,5.5,21.7C1110.8,362,1109.7,367.7,1107.6,371.5z"/>
							<path class="st10" d="M1154.5,327.5l-1.4-50.6c-11.1,16.9-11.6,38.3-0.9,55.1L1154.5,327.5z"/>
							<path class="st11" d="M1089.3,324.3c2.1-1.1,4.8,0,6.3,1.8c1.5,1.9,1.9,4.3,2.2,6.6c0.2,2.3,0.3,4.8,1.1,7
								c1,2.7,3,4.8,4.6,7.3c1.6,2.4,2.7,5.4,1.6,8.1c-1,2.7-3.9,4.2-6.7,5.2c-11.9,4.7-25,6.4-37.7,4.9c-1.9-0.2-3.9-0.6-5.1-2.1
								c-1.6-2-0.7-4.9-0.6-7.5c0.2-4.2-1.9-8.2-3.5-12.1c-1.6-3.9-2.7-8.6-0.6-12.3C1057.5,320.1,1076.5,322.4,1089.3,324.3z"/>
							<path class="st12" d="M1056,336.1l-14.1-63.2l-30.7-16.6c-3.8-2.1-6.9-5.3-8.7-9.3l-7.7-17.2l-1.6-14.5
								c-0.3-2.9,2-5.5,4.9-5.5l0,0c2.4,0,4.4,1.7,4.9,4.1l2.4,12.7l11.2,14.6l-4.7-15.2l-1-16.1c-0.2-3.3,2.4-6.2,5.8-6.2l0,0
								c3.1,0,5.6,2.4,5.8,5.5l0.9,15.5l8.4,18.7l-3.8-18.7l0.5-13.4c0.1-3.1,2.8-5.5,5.9-5.3l0,0c3,0.2,5.2,2.7,5.1,5.7l-0.5,13.3
								l6.1,18.4l0.5-14.8l2.2-9c0.6-2.6,3.3-4.2,5.9-3.6l0,0c2.7,0.6,4.4,3.3,3.7,6l-2.3,9.1l1.8,14.5c15,3.5,15,24.3,15,24.3
								l20.5,59.8C1079.4,339.2,1056,336.1,1056,336.1z"/>
						</g>
					</g>
					<g>
						<path class="st9" d="M1308.6,234.8L1308.6,234.8c18.3,0.7,33.5,14.3,36.4,32.4l13.2,84.1l16.6,60.3
							c-12.3,16.4-40.2,14-50.6-7.7c-10.3-21.7-18.7-81.1-18.7-81.1L1308.6,234.8z"/>
						<path class="st10" d="M1352.4,314.5c-6.3,11.8-15.3,27.9-21.6,39.6c-1.4,2.7-2.6,6.1-2.1,9.1c0.5,3,1.4,6,0.8,9
							c-0.5,2.4-2,4.5-2.8,6.8c-1.2,3.1-1.2,6.6-0.1,9.7c1.1,3.1,3.4,5.8,6.3,7.5l-3.7,2.8c3.5,14.1,25.3,24.4,45.6,12.5l-16.6-60.3
							L1352.4,314.5z"/>
						<path class="st10" d="M1305.5,322.7l1.7-45.9c18.1,22.5-0.6,53.2-0.6,53.2L1305.5,322.7z"/>
						<g>
							<path class="st11" d="M1375.8,372.5c2.9,1.7,4.5,5.1,4.8,8.4c0.4,3.3-0.3,6.7-1,10c-0.8,3.3-1.6,6.6-1.6,9.9
								c0,2.7,0.6,5.7-0.7,8.1c-1.4,2.6-4.4,3.7-7.2,4.4c-11.8,2.8-24.7,0-34.3-7.3c-2.6-1.9-4.9-4.2-6.6-7
								c-1.6-2.8-2.5-6.1-1.9-9.3c0.7-4,3.6-7.3,4.1-11.3c0.3-2.2-0.1-4.4-0.2-6.6c-0.2-2.2-0.1-4.6,1-6.5c1.1-1.9,3.6-3.2,5.6-2.4
								C1349.3,367.8,1365.2,366.1,1375.8,372.5z"/>
							<path class="st13" d="M1360.1,290l-25.6,81.1c5,18.8,36.1,17.5,42.6,15.2c11.2-59.9,15-96.2,15-96.2H1360.1z"/>
							<path class="st8" d="M1367.3,249.5l-9.5,15.6h-14.6l-9.6-6c-2.8-1.7-6.4-1-8.3,1.7l0,0c-2.2,3.1-1,7.4,2.4,9l16.3,7.8
								c3,8,13.4,13.3,13.4,13.3c5.2,5.6,21.4,7.9,27.3,6.5c6-1.4,7.5-20.7,7.5-20.7l-11.1-27.2H1367.3z"/>
							<path class="st12" d="M1348.1,249.1l14.4-11c2.6-2,6-2.7,9.3-2l6.7,1.5c3.2,0.7,6,2.8,7.5,5.8l6.6,12.6
								c4,7.7,5.5,16.4,4.4,24.9l-0.8,6c-0.3,2.2-1.2,4.2-2.7,5.8l-5.8,6.4l-12,7.1c-2.1,1.2-4.8,0.6-6.1-1.4l0,0
								c-1.3-2-0.8-4.7,1.1-6.1l10.3-7.5l4.3-7.6l-10.1,6.8l-14.5,6.8c-2.6,1.2-5.7,0.2-7.1-2.4l0,0c-1.4-2.6-0.3-5.9,2.3-7.2
								l13.2-6.7l9-6.8l0.8-7.1l-26.4,11.8c-3,1.3-6.4,0.1-8-2.7l0,0c-1.7-3.1-0.5-6.9,2.6-8.5l14.6-7.6l13.7-6l-2.5-1.3
								c-3.1-1.6-6.7-1.5-9.7,0.4l-8.8,5.5c-2.5,1.6-5.7,1-7.6-1.2l0,0C1345.1,255,1345.5,251.2,1348.1,249.1z"/>
						</g>
					</g>
					<g>
						<path class="st9" d="M1198.1,232.9L1152,239l3.9,136.4c0.4,13.9-0.3,27.8-1.9,41.5l-6.8,56h162.6l-5.3-61.2
							c-1-11.4-1.3-22.8-0.9-34.2l5.1-142.7l-48.3-1.9H1198.1z"/>
						<polygon class="st10" points="1203.8,221.4 1254.6,221.4 1235.1,239 1223.4,239 						"/>
						<g>
							<polygon class="st12" points="1209,209.8 1209,233.4 1223.4,239 1228.6,253.6 1226.2,264.9 1231.7,272.9 1235.8,265.2 
								1233.3,251.7 1235.1,239 1252,230.6 1252,190.9 							"/>
							<path class="st6" d="M1225.3,221.3c7.7-2,14.4-7.2,18.8-13.8c3.2-4.8,5.3-10.2,6.3-15.9l-41.4,18.1V221
								C1214.3,222.6,1220,222.8,1225.3,221.3z"/>
						</g>
						<polygon class="st10" points="1223.4,239 1223.4,253.6 1216.2,268.6 1198.1,232.9 						"/>
						<polygon class="st10" points="1235.1,239 1236.5,252.7 1244.1,268.6 1260.3,232.9 						"/>
						<polygon class="st10" points="1231.7,272.9 1235.1,286.4 1230.5,301.8 1232.8,432.6 1227.6,301.2 1232.3,286.7 						"/>
						<path class="st10" d="M1242.2,273.6c0,1.6-1.3,2.8-2.8,2.8c-1.6,0-2.8-1.3-2.8-2.8c0-1.6,1.3-2.8,2.8-2.8
							C1240.9,270.8,1242.2,272.1,1242.2,273.6z"/>
						<path class="st10" d="M1239.3,303.4c0,1.6-1.3,2.8-2.8,2.8s-2.8-1.3-2.8-2.8c0-1.6,1.3-2.8,2.8-2.8S1239.3,301.8,1239.3,303.4
							z"/>
						<path class="st10" d="M1240.7,341.7c0,1.6-1.3,2.8-2.8,2.8c-1.6,0-2.8-1.3-2.8-2.8c0-1.6,1.3-2.8,2.8-2.8
							C1239.4,338.8,1240.7,340.1,1240.7,341.7z"/>
						<path class="st10" d="M1242.1,379.9c0,1.6-1.3,2.8-2.8,2.8c-1.6,0-2.8-1.3-2.8-2.8c0-1.6,1.3-2.8,2.8-2.8
							C1240.8,377.1,1242.1,378.3,1242.1,379.9z"/>
						<circle class="st10" cx="1240.6" cy="418.2" r="2.8"/>
						<polygon class="st9" points="1203.8,221.4 1223.4,239 1214.8,263 1198.1,232.9 						"/>
						<polygon class="st9" points="1254.6,221.4 1235.1,239 1243.6,263 1260.3,232.9 						"/>
					</g>
					<g>
						<path class="st12" d="M1170.9,155.2l4.5,24.4c4,22,24.5,37.1,46.7,34.4h0c22.9-2.8,39.4-23.4,37-46.4l-2.6-24.6
							c-2.5-24.2-24.5-41.5-48.6-38.4h0C1183.4,107.7,1166.5,130.8,1170.9,155.2z"/>
						<path class="st6" d="M1258.6,174.9c-4-2.5-6.2-7.1-6.9-11.7c-0.7-4.6,0-9.3,0.6-14c-5.3-3-9.4-7.5-11.5-13.2
							c-2.1-5.7-2.1-12.1,0-17.8c-11.8-1.4-24.1,1.9-35.2,6.1c-11.1,4.2-22.2,8.9-34,10c-5.6,0.5-11.4,0.1-16.2-2.7
							c-7.8-4.5-11.4-14.5-10-23.4c1.4-8.9,7-16.7,13.7-22.6c0.4,3.1,2.8,6.1,5.8,6.7c3.1,0.6,6.3-0.3,9-1.8
							c2.8-1.5,5.2-3.5,7.7-5.4c6.2-4.6,13.1-8.1,20.4-10.5c8.2-2.7,17-3.8,25.4-2.1c8.4,1.7,16.4,6.7,20.7,14.1
							c-0.5-6.5,2.3-12.4,6.7-17.2c2.7,5.7,2.8,13.1,0.2,18.8c5.8-4.9,13.8-7.2,21.3-6.6c-3.2,6-9.3,10.8-15.9,12.5
							c25.4,6.8,21,33,15.9,45.2L1258.6,174.9z"/>
						<path class="st14" d="M1152.5,109.7c3.3,4.8,9.3,7.1,15.1,7.4c9.5,0.5,18.6-3.7,26.5-9c7.9-5.2,15.1-11.5,23.4-16.2
							c8.3-4.7,19.7-8.6,30.8-5.4c-4.3-7.4-12.3-12.3-20.7-14.1c-8.4-1.7-17.3-0.6-25.4,2.1c-7.3,2.4-14.3,5.9-20.4,10.5
							c-2.5,1.9-4.9,3.9-7.7,5.4c-2.8,1.5-6,2.4-9,1.8c-3.1-0.6-5.4-3.6-5.8-6.7c-3.2,2.8-6.1,6.1-8.5,9.6c-0.1,0.2-0.1,0.4-0.2,0.5
							C1149.3,100.5,1149.7,105.7,1152.5,109.7z"/>
						<path class="st14" d="M1260.7,94.1c-5.2,3.4-9.3,9.4-10.1,15.6c-0.8,6.2,1.2,12.6,5.4,17.3c2.2,2.5,5,4.4,8.2,5.4
							s6.7,0.8,9.6-0.6c3-1.5,5.1-4.1,6.5-7.2C1281.5,112.5,1278,98.8,1260.7,94.1z"/>
						<g>
							<g>
								<path class="st15" d="M1230,133.2l-19.4,3c5.4-0.8,10.4,2.8,11.2,8.2l3.4,21.8c0.8,5.4-2.8,10.4-8.2,11.2l19.4-3
									c5.4-0.8,9-5.8,8.2-11.2l-3.4-21.8C1240.4,136,1235.4,132.3,1230,133.2z"/>
								<path class="st16" d="M1210.6,136.2l-31.5,4.9l-19.4,3c-5.4,0.8-9,5.8-8.2,11.2l3.4,21.8c0.8,5.4,5.8,9,11.2,8.2l19.4-3
									l31.5-4.9c5.4-0.8,9-5.8,8.2-11.2l-3.4-21.8C1221,139,1216,135.3,1210.6,136.2z"/>
								<path class="st9" d="M1162.1,158L1162.1,158c-2.2,0.3-4.3-1.2-4.7-3.4l0,0c-0.3-2.2,1.2-4.3,3.4-4.7l0,0
									c2.2-0.3,4.3,1.2,4.7,3.4l0,0C1165.8,155.5,1164.3,157.6,1162.1,158z"/>
								<path class="st9" d="M1165.4,179.8L1165.4,179.8c-2.2,0.3-4.3-1.2-4.7-3.4l-1.7-11.2c-0.3-2.2,1.2-4.3,3.4-4.7l0,0
									c2.2-0.3,4.3,1.2,4.7,3.4l1.7,11.2C1169.2,177.4,1167.7,179.5,1165.4,179.8z"/>
							</g>
							<polygon class="st16" points="1237,146.5 1239.1,158.7 1278.1,152 1276.6,139.4 							"/>
						</g>
						<g>
							<path class="st12" d="M1266.4,154.4c2.8-2.2,6.3-4,9.8-3.2c3.3,0.7,5.7,3.7,6.6,6.9c0.9,3.2,0.4,6.7-0.6,9.9
								c-1,3.3-2.4,6.4-4.7,9c-2.2,2.6-5.3,4.5-8.6,5c-3.4,0.5-7-0.5-9.3-3.1C1252.4,171.1,1259.7,159.7,1266.4,154.4z"/>
							<path class="st8" d="M1277.1,158.7c-4.4,0-8.9,2-11.7,5.4c-1.2,1.5-2.2,3.2-2.2,5.1c0,1.9,1,3.9,2.8,4.5
								c1.4,0.5,3.1,0,4.3-0.9c1.2-0.8,2.1-2.1,2.4-3.5c0.3-1.4-0.1-3-1.1-4c-1-1-2.8-1.2-4-0.5
								C1269.6,161.9,1273.5,159.3,1277.1,158.7z"/>
						</g>
						<path class="st9" d="M1231,186.9c-12,2.2-24,4.4-36,6.7c2.5,4.5,6.4,8.7,11,10.9c3.8,1.8,8.2,2.7,12.3,2
							c4.2-0.7,8.2-2.9,10.6-6.3C1231.5,196.8,1232.5,190.9,1231,186.9z"/>
						<path class="st8" d="M1176.4,183.6l60.1-9.3C1217.7,186.6,1189.8,187.9,1176.4,183.6z"/>
					</g>
				</g>
			</g>
		</g>
		<g class="st17">
			<g class="st17">
				<path class="st18" d="M1086.1,204.9h-93.8c-5.8,0-10.5-4.7-10.5-10.5v-53.8c0-5.8,4.7-10.5,10.5-10.5h93.8
					c5.8,0,10.5,4.7,10.5,10.5v53.8C1096.5,200.2,1091.9,204.9,1086.1,204.9z"/>
				<path class="st9" d="M1086.1,206h-93.8c-6.3,0-11.5-5.2-11.5-11.5v-53.8c0-6.3,5.2-11.5,11.5-11.5h93.8
					c6.3,0,11.5,5.2,11.5,11.5v53.8C1097.6,200.8,1092.4,206,1086.1,206z M992.3,131.3c-5.2,0-9.4,4.2-9.4,9.4v53.8
					c0,5.2,4.2,9.4,9.4,9.4h93.8c5.2,0,9.4-4.2,9.4-9.4v-53.8c0-5.2-4.2-9.4-9.4-9.4H992.3z"/>
			</g>
			<g>
				<g>
					<rect x="994.3" y="139.4" class="st5" width="29.8" height="8.4"/>
					<rect x="1024.2" y="139.4" class="st19" width="59.9" height="8.4"/>
				</g>
				<g>
					<rect x="994.3" y="155.4" class="st5" width="62.3" height="8.4"/>
					<rect x="1056.6" y="155.4" class="st19" width="27.5" height="8.4"/>
				</g>
				<g>
					<rect x="994.3" y="171.4" class="st5" width="44.9" height="8.4"/>
					<rect x="1039.2" y="171.4" class="st19" width="44.9" height="8.4"/>
				</g>
				<g>
					<rect x="994.3" y="187.4" class="st5" width="73.2" height="8.4"/>
					<rect x="1067.6" y="187.4" class="st19" width="16.5" height="8.4"/>
				</g>
			</g>
			<g class="st20">
				<g>
					<path class="st9" d="M976.2,142.5c-10.6,0-19.2-8.6-19.2-19.2c0-10.6,8.6-19.2,19.2-19.2c10.6,0,19.2,8.6,19.2,19.2
						C995.4,133.9,986.8,142.5,976.2,142.5z M976.2,106.2c-9.4,0-17.1,7.7-17.1,17.1c0,9.4,7.7,17.1,17.1,17.1
						c9.4,0,17.1-7.7,17.1-17.1C993.3,113.9,985.6,106.2,976.2,106.2z"/>
				</g>
				<g>
					<path class="st21" d="M969.1,134.2v-21.8l18.9,10.9L969.1,134.2z M971.2,116v14.5l12.6-7.3L971.2,116z"/>
				</g>
			</g>
			<g class="st17">
				<g>
					<path class="st18" d="M1009.5,300.6h-74.8c-5.8,0-10.5-4.7-10.5-10.5v-36.9c0-5.8,4.7-10.5,10.5-10.5h74.8
						c5.8,0,10.5,4.7,10.5,10.5v36.9C1019.9,295.9,1015.2,300.6,1009.5,300.6z"/>
					<path class="st9" d="M1009.5,301.6h-74.8c-6.3,0-11.5-5.2-11.5-11.5v-36.9c0-6.3,5.2-11.5,11.5-11.5h74.8
						c6.3,0,11.5,5.2,11.5,11.5v36.9C1021,296.5,1015.8,301.6,1009.5,301.6z M934.7,243.8c-5.2,0-9.4,4.2-9.4,9.4v36.9
						c0,5.2,4.2,9.4,9.4,9.4h74.8c5.2,0,9.4-4.2,9.4-9.4v-36.9c0-5.2-4.2-9.4-9.4-9.4H934.7z"/>
				</g>
				<g>
					<path class="st18" d="M1121.6,300.6h-74.8c-5.8,0-10.5-4.7-10.5-10.5v-36.9c0-5.8,4.7-10.5,10.5-10.5h74.8
						c5.8,0,10.5,4.7,10.5,10.5v36.9C1132.1,295.9,1127.4,300.6,1121.6,300.6z"/>
					<path class="st9" d="M1121.6,301.6h-74.8c-6.3,0-11.5-5.2-11.5-11.5v-36.9c0-6.3,5.2-11.5,11.5-11.5h74.8
						c6.3,0,11.5,5.2,11.5,11.5v36.9C1133.2,296.5,1128,301.6,1121.6,301.6z M1046.9,243.8c-5.2,0-9.4,4.2-9.4,9.4v36.9
						c0,5.2,4.2,9.4,9.4,9.4h74.8c5.2,0,9.4-4.2,9.4-9.4v-36.9c0-5.2-4.2-9.4-9.4-9.4H1046.9z"/>
				</g>
				<g>
					<path class="st18" d="M1009.5,372.4h-74.8c-5.8,0-10.5-4.7-10.5-10.5V325c0-5.8,4.7-10.5,10.5-10.5h74.8
						c5.8,0,10.5,4.7,10.5,10.5v36.9C1019.9,367.7,1015.2,372.4,1009.5,372.4z"/>
					<path class="st9" d="M1009.5,373.4h-74.8c-6.3,0-11.5-5.2-11.5-11.5V325c0-6.3,5.2-11.5,11.5-11.5h74.8
						c6.3,0,11.5,5.2,11.5,11.5v36.9C1021,368.2,1015.8,373.4,1009.5,373.4z M934.7,315.6c-5.2,0-9.4,4.2-9.4,9.4v36.9
						c0,5.2,4.2,9.4,9.4,9.4h74.8c5.2,0,9.4-4.2,9.4-9.4V325c0-5.2-4.2-9.4-9.4-9.4H934.7z"/>
				</g>
				<g>
					<path class="st18" d="M1121.6,372.4h-74.8c-5.8,0-10.5-4.7-10.5-10.5V325c0-5.8,4.7-10.5,10.5-10.5h74.8
						c5.8,0,10.5,4.7,10.5,10.5v36.9C1132.1,367.7,1127.4,372.4,1121.6,372.4z"/>
					<path class="st9" d="M1121.6,373.4h-74.8c-6.3,0-11.5-5.2-11.5-11.5V325c0-6.3,5.2-11.5,11.5-11.5h74.8
						c6.3,0,11.5,5.2,11.5,11.5v36.9C1133.2,368.2,1128,373.4,1121.6,373.4z M1046.9,315.6c-5.2,0-9.4,4.2-9.4,9.4v36.9
						c0,5.2,4.2,9.4,9.4,9.4h74.8c5.2,0,9.4-4.2,9.4-9.4V325c0-5.2-4.2-9.4-9.4-9.4H1046.9z"/>
				</g>
			</g>
			<g>
				<rect x="1044.1" y="393.7" class="st18" width="67.3" height="5.2"/>
				<rect x="1044.1" y="407.3" class="st18" width="48.4" height="5.2"/>
				<rect x="1100.2" y="407.3" class="st18" width="11.2" height="5.2"/>
			</g>
			<g>
				<rect x="934" y="393.7" class="st18" width="67.3" height="5.2"/>
				<rect x="934" y="407.3" class="st18" width="35.2" height="5.2"/>
				<rect x="934" y="420.9" class="st18" width="76.8" height="5.2"/>
				<rect x="934" y="434.5" class="st18" width="39.7" height="5.2"/>
				<rect x="981.4" y="434.5" class="st18" width="11.7" height="5.2"/>
			</g>
			<g>
				<g class="st22">
					<path class="st18" d="M1476.6,437.4h-214.8c-5.8,0-10.5-4.7-10.5-10.5V280.5c0-5.8,4.7-10.5,10.5-10.5h214.8
						c5.8,0,10.5,4.7,10.5,10.5v146.4C1487,432.7,1482.4,437.4,1476.6,437.4z"/>
					<path class="st9" d="M1476.6,438.4h-214.8c-6.3,0-11.5-5.2-11.5-11.5V280.5c0-6.3,5.2-11.5,11.5-11.5h214.8
						c6.3,0,11.5,5.2,11.5,11.5v146.4C1488.1,433.3,1482.9,438.4,1476.6,438.4z M1261.8,271.1c-5.2,0-9.4,4.2-9.4,9.4v146.4
						c0,5.2,4.2,9.4,9.4,9.4h214.8c5.2,0,9.4-4.2,9.4-9.4V280.5c0-5.2-4.2-9.4-9.4-9.4H1261.8z"/>
				</g>
				<g>
					<rect x="1269.4" y="288.2" class="st5" width="53.3" height="5.2"/>
					<rect x="1269.4" y="301.8" class="st5" width="65.5" height="5.2"/>
					<rect x="1269.4" y="315.4" class="st5" width="45.3" height="5.2"/>
					<rect x="1269.4" y="329" class="st5" width="45.3" height="5.2"/>
					<rect x="1322.5" y="329" class="st5" width="11.7" height="5.2"/>
					<rect x="1374" y="362.8" class="st5" width="53.3" height="5.2"/>
					<rect x="1438.9" y="362.8" class="st5" width="11.8" height="5.2"/>
					<rect x="1374" y="376.4" class="st5" width="45.3" height="5.2"/>
					<rect x="1430.5" y="376.4" class="st5" width="40.1" height="5.2"/>
					<rect x="1374" y="390" class="st5" width="32.8" height="5.2"/>
					<rect x="1416.6" y="390" class="st5" width="54" height="5.2"/>
					<rect x="1374" y="403.6" class="st5" width="45.3" height="5.2"/>
					<rect x="1427.1" y="403.6" class="st5" width="11.7" height="5.2"/>
					<g>
						<path class="st18" d="M1465.3,348.1h-85.1c-2.9,0-5.2-2.3-5.2-5.2v-50c0-2.9,2.3-5.2,5.2-5.2h85.1c2.9,0,5.2,2.3,5.2,5.2v50
							C1470.6,345.8,1468.2,348.1,1465.3,348.1z"/>
						<path class="st9" d="M1465.3,349.1h-85.1c-3.5,0-6.3-2.8-6.3-6.3v-50c0-3.5,2.8-6.3,6.3-6.3h85.1c3.5,0,6.3,2.8,6.3,6.3v50
							C1471.6,346.3,1468.8,349.1,1465.3,349.1z M1380.3,288.7c-2.3,0-4.2,1.9-4.2,4.2v50c0,2.3,1.9,4.2,4.2,4.2h85.1
							c2.3,0,4.2-1.9,4.2-4.2v-50c0-2.3-1.9-4.2-4.2-4.2H1380.3z"/>
					</g>
					<g>
						<polygon class="st9" points="1442.5,311.9 1430.5,327.1 1410.5,301.6 1385.6,333.4 1425.6,333.4 1435.4,333.4 1459.3,333.4 
													"/>
						<path class="st9" d="M1429.1,310.2c3.5,0,6.3-2.8,6.3-6.3c0-3.5-2.8-6.3-6.3-6.3c-3.5,0-6.3,2.8-6.3,6.3
							C1422.8,307.4,1425.6,310.2,1429.1,310.2z"/>
					</g>
					<g>
						<path class="st18" d="M1342.6,419.8h-69.6c-2.9,0-5.2-2.3-5.2-5.2v-46.5c0-2.9,2.3-5.2,5.2-5.2h69.6c2.9,0,5.2,2.3,5.2,5.2
							v46.5C1347.8,417.4,1345.5,419.8,1342.6,419.8z"/>
						<path class="st9" d="M1342.6,420.8h-69.6c-3.5,0-6.3-2.8-6.3-6.3v-46.5c0-3.5,2.8-6.3,6.3-6.3h69.6c3.5,0,6.3,2.8,6.3,6.3
							v46.5C1348.9,418,1346.1,420.8,1342.6,420.8z M1273.1,363.9c-2.3,0-4.2,1.9-4.2,4.2v46.5c0,2.3,1.9,4.2,4.2,4.2h69.6
							c2.3,0,4.2-1.9,4.2-4.2v-46.5c0-2.3-1.9-4.2-4.2-4.2H1273.1z"/>
					</g>
					<g>
						<polygon class="st9" points="1324.3,387.6 1314.3,400.4 1297.5,379 1276.6,405.6 1310.2,405.6 1318.4,405.6 1338.4,405.6 
													"/>
						<path class="st9" d="M1313.1,386.2c2.9,0,5.3-2.4,5.3-5.3c0-2.9-2.4-5.3-5.3-5.3c-2.9,0-5.3,2.4-5.3,5.3
							C1307.8,383.8,1310.2,386.2,1313.1,386.2z"/>
					</g>
				</g>
			</g>
			<g class="st22">
				<g>
					<path class="st9" d="M1409,144.1c3.3,6.6,5.2,14.1,5.2,22c0,27.2-22.1,49.3-49.3,49.3c-27.2,0-49.3-22.1-49.3-49.3
						c0-27.2,22.1-49.3,49.3-49.3v-9.4c-32.4,0-58.7,26.3-58.7,58.7c0,32.4,26.3,58.7,58.7,58.7c32.4,0,58.7-26.3,58.7-58.7
						c0-9.4-2.2-18.2-6.1-26.1L1409,144.1z"/>
					<path class="st18" d="M1364.8,116.8c19.3,0,36,11.1,44.1,27.3l8.5-4.1c-9.6-19.3-29.6-32.6-52.6-32.6c0,0,0,0,0,0L1364.8,116.8
						C1364.8,116.8,1364.8,116.8,1364.8,116.8z"/>
				</g>
				<g>
					<path class="st18" d="M1408.7,166.1c0-24.2-19.7-43.8-43.8-43.8c0,0,0,0,0,0v9.4c0,0,0,0,0,0c19,0,34.4,15.4,34.4,34.4
						c0,13.3-7.6,24.8-18.6,30.6l4.3,8.4C1399,197.7,1408.7,183,1408.7,166.1z"/>
					<path class="st9" d="M1364.8,200.5c-19,0-34.4-15.4-34.4-34.4c0-19,15.4-34.4,34.4-34.4v-9.4c-24.2,0-43.8,19.7-43.8,43.8
						c0,24.2,19.7,43.8,43.8,43.8c7.2,0,14.1-1.8,20.1-4.9l-4.3-8.4C1375.9,199.1,1370.5,200.5,1364.8,200.5z"/>
				</g>
				<g>
					<path class="st18" d="M1364.8,136.8C1364.8,136.8,1364.8,136.8,1364.8,136.8l0,9.4c0,0,0,0,0,0c11,0,19.9,8.9,19.9,19.9
						c0,11-8.9,19.9-19.9,19.9c-6.9,0-12.9-3.5-16.5-8.8l-7.7,5.4c5.3,7.7,14.2,12.8,24.2,12.8c16.2,0,29.3-13.2,29.3-29.3
						S1381,136.8,1364.8,136.8z"/>
					<path class="st9" d="M1344.9,166.1c0-11,8.9-19.9,19.9-19.9v-9.4c-16.2,0-29.3,13.2-29.3,29.3c0,6.1,1.9,11.8,5.1,16.5l7.7-5.4
						C1346.2,174,1344.9,170.2,1344.9,166.1z"/>
				</g>
			</g>
			<g class="st20">
				<g>
					<polygon class="st9" points="942.4,228.1 929.5,228.1 929.5,121.1 942.4,121.1 942.4,123.2 931.5,123.2 931.5,226.1 
						942.4,226.1 					"/>
				</g>
				<g>
					<polygon class="st9" points="1045.1,113.6 1043,113.6 1043,84 1365.9,84 1365.9,94.4 1363.8,94.4 1363.8,86.1 1045.1,86.1 
											"/>
				</g>
				<g>
					<polygon class="st9" points="1446,284.1 1443.9,284.1 1443.9,175.4 1434.1,175.4 1434.1,173.3 1446,173.3 					"/>
				</g>
			</g>
		</g>
		<g>
			<rect x="983.3" y="24.7" class="st23" width="27.3" height="27.3"/>
			<rect x="999" y="40.2" class="st23" width="19.3" height="19.3"/>
			<rect x="1046.8" y="40.2" class="st23" width="11.8" height="11.8"/>
			<rect x="89.9" y="116.8" class="st23" width="27.3" height="27.3"/>
			<rect x="105.6" y="132.3" class="st23" width="19.3" height="19.3"/>
			<rect x="153.4" y="132.3" class="st23" width="11.8" height="11.8"/>
			<rect x="1014.8" y="83.9" class="st23" width="16.1" height="16.1"/>
			<rect x="1133.7" y="188.5" class="st23" width="15.6" height="15.6"/>
			<rect x="1124.5" y="196.3" class="st23" width="17.4" height="17.4"/>
			<rect x="1104.4" y="198" class="st23" width="8.5" height="8.5"/>
			<rect x="838.3" y="185" class="st23" width="16.5" height="16.5"/>
			<rect x="835.2" y="158.1" class="st23" width="8.6" height="8.6"/>
			<rect x="804.3" y="174.2" class="st23" width="7.2" height="7.2"/>
			<rect x="1292.4" y="204.9" class="st23" width="9.4" height="9.4"/>
			<rect x="1469.3" y="56.6" class="st23" width="29.6" height="29.6"/>
			<rect x="1488.4" y="75.3" class="st23" width="20.1" height="20.1"/>
			<rect x="1513" y="45" class="st23" width="18.5" height="18.5"/>
			<rect x="1401.9" y="58.2" class="st23" width="6.8" height="6.8"/>
			<rect x="1366.5" y="28" class="st23" width="18" height="18"/>
			<rect x="1352.3" y="38.7" class="st23" width="20.4" height="20.4"/>
			<rect x="1331.8" y="32.5" class="st23" width="10.9" height="10.9"/>
			<rect x="1133.2" y="40.7" class="st23" width="10.9" height="10.9"/>
			<rect x="98.6" y="386.4" class="st23" width="20.8" height="20.8"/>
			<rect x="111.5" y="398.7" class="st23" width="24.3" height="24.3"/>
			<rect x="133" y="379.3" class="st23" width="25.2" height="25.2"/>
			<rect x="169.3" y="389.4" class="st23" width="9.4" height="9.4"/>
			<rect x="1707.4" y="376.9" class="st23" width="20.8" height="20.8"/>
			<rect x="1720.2" y="389.2" class="st23" width="24.3" height="24.3"/>
			<rect x="1741.7" y="369.8" class="st23" width="25.2" height="25.2"/>
			<rect x="1778" y="379.8" class="st23" width="9.4" height="9.4"/>
			<rect x="201.6" y="383.1" class="st23" width="14.1" height="14.1"/>
			<rect x="1513" y="124.2" class="st23" width="15.6" height="15.6"/>
			
				<rect x="867.5" y="35.4" transform="matrix(0.9998 -2.004167e-02 2.004167e-02 0.9998 -0.7995 17.6625)" class="st23" width="26.6" height="26.6"/>
			
				<rect x="883.6" y="51.1" transform="matrix(0.9998 -2.004483e-02 2.004483e-02 0.9998 -1.0271 17.907)" class="st23" width="18.2" height="18.2"/>
			<rect x="811.6" y="370.8" class="st23" width="17.9" height="17.9"/>
			<rect x="846.3" y="390.7" class="st23" width="7.5" height="7.5"/>
			<rect x="1525.6" y="346.8" class="st23" width="19.1" height="19.1"/>
			<rect x="1539.6" y="361.3" class="st23" width="15" height="15"/>
			<rect x="1560.7" y="348.6" class="st23" width="9.7" height="9.7"/>
			<rect x="1517.6" y="335.6" class="st23" width="6.4" height="6.4"/>
		</g>
	</g>
	<g>
		<linearGradient id="SVGID_5_" gradientUnits="userSpaceOnUse" x1="116.4996" y1="57.0616" x2="116.4996" y2="138.5911">
			<stop  offset="0" style="stop-color:#FFFFFF"/>
			<stop  offset="0.7544" style="stop-color:#FFFFFF;stop-opacity:0"/>
		</linearGradient>
		<path class="st24" d="M80.1,57.9c-1-1-2.6-1.1-3.6,0c-1,1-1,2.7,0,3.6l80.7,77.1L80.1,57.9z"/>
		<linearGradient id="SVGID_6_" gradientUnits="userSpaceOnUse" x1="1622.5854" y1="150.8151" x2="1622.5854" y2="232.3445">
			<stop  offset="0" style="stop-color:#FFFFFF"/>
			<stop  offset="0.7544" style="stop-color:#FFFFFF;stop-opacity:0"/>
		</linearGradient>
		<path class="st25" d="M1586.2,151.6c-1-1-2.6-1.1-3.6,0s-1,2.7,0,3.6l80.7,77.1L1586.2,151.6z"/>
		<linearGradient id="SVGID_7_" gradientUnits="userSpaceOnUse" x1="787.9454" y1="87.2509" x2="787.9454" y2="150.3628">
			<stop  offset="0" style="stop-color:#FFFFFF"/>
			<stop  offset="0.7544" style="stop-color:#FFFFFF;stop-opacity:0"/>
		</linearGradient>
		<path class="st26" d="M759.8,87.9c-0.8-0.8-2-0.8-2.8,0s-0.8,2.1,0,2.8l62.5,59.7L759.8,87.9z"/>
		<linearGradient id="SVGID_8_" gradientUnits="userSpaceOnUse" x1="863.8811" y1="81.0963" x2="863.8811" y2="118.8069">
			<stop  offset="0" style="stop-color:#FFFFFF"/>
			<stop  offset="0.7544" style="stop-color:#FFFFFF;stop-opacity:0"/>
		</linearGradient>
		<path class="st27" d="M847.1,81.5c-0.5-0.5-1.2-0.5-1.7,0c-0.5,0.5-0.5,1.2,0,1.7l37.3,35.7L847.1,81.5z"/>
		<linearGradient id="SVGID_9_" gradientUnits="userSpaceOnUse" x1="1810.558" y1="191.0685" x2="1810.558" y2="228.779">
			<stop  offset="0" style="stop-color:#FFFFFF"/>
			<stop  offset="0.7544" style="stop-color:#FFFFFF;stop-opacity:0"/>
		</linearGradient>
		<path class="st28" d="M1793.7,191.4c-0.5-0.5-1.2-0.5-1.7,0c-0.5,0.5-0.5,1.2,0,1.7l37.3,35.7L1793.7,191.4z"/>
		<linearGradient id="SVGID_10_" gradientUnits="userSpaceOnUse" x1="146.713" y1="245.5128" x2="146.713" y2="301.6331">
			<stop  offset="0" style="stop-color:#FFFFFF"/>
			<stop  offset="0.7544" style="stop-color:#FFFFFF;stop-opacity:0"/>
		</linearGradient>
		<path class="st29" d="M121.7,246.1c-0.7-0.7-1.8-0.7-2.5,0c-0.7,0.7-0.7,1.8,0,2.5l55.6,53.1L121.7,246.1z"/>
	</g>
	<g>
		<rect x="64.6" y="203.5" class="st30" width="74.1" height="10"/>
		<rect x="259.4" y="27.5" class="st30" width="54.4" height="10"/>
		<rect x="750.3" y="53.7" class="st30" width="53.9" height="9"/>
		<rect x="756.4" y="246.9" class="st30" width="41.8" height="9.8"/>
		<rect x="127.6" y="348.9" class="st30" width="74.1" height="9.2"/>
		<rect x="1845.9" y="230.8" class="st30" width="74.1" height="9.2"/>
		<rect x="654.6" y="378.5" class="st30" width="51.8" height="10"/>
		<rect x="1707.4" y="186.6" class="st30" width="62.2" height="9.9"/>
		<rect x="1632" y="328" class="st30" width="33" height="7.3"/>
		<rect x="1887" y="391.6" class="st30" width="33" height="7.3"/>
		<rect x="1554.5" y="39.8" class="st30" width="33" height="7.3"/>
		<rect x="528.4" y="53.2" class="st30" width="21.5" height="10"/>
		<rect x="1178.8" y="49.2" class="st30" width="21.5" height="10"/>
		<rect y="126" class="st30" width="40.2" height="10.7"/>
	</g>
</g>
<g id="TEXTS">
	<text transform="matrix(1 0 0 1 323.9096 147.7668)" class="st31 st32 st33">Developer</text>
	<g>
		<g>
			<path class="st34" d="M1671,141c-1.9,1.9-4.5,3-7.2,3s-5.3-1.1-7.2-3l-15.5-15.5c-4-4-4-10.4,0-14.4l15.5-15.5
				c1.9-1.9,4.5-3,7.2-3s5.3,1.1,7.2,3l1.8,1.8l2,2l6.4,6.4l2,2l8.7,8.7c1,1,1,2.5,0,3.5l-8.7,8.7l6.4,6.4l8.7-8.7
				c4.5-4.5,4.5-11.8,0-16.4l-8.7-8.7l-2-2l-6.4-6.4l-2-2l-1.8-1.8c-3.6-3.6-8.5-5.6-13.6-5.6s-10,2-13.6,5.6l-15.5,15.5
				c-7.5,7.5-7.5,19.7,0,27.3l15.5,15.5c3.6,3.6,8.5,5.6,13.6,5.6s10-2,13.6-5.6l1.8-1.8l-6.4-6.4L1671,141z"/>
			<path class="st34" d="M1727.9,104.7l-15.5-15.5c-3.6-3.6-8.5-5.6-13.6-5.6c-5.1,0-10,2-13.6,5.6l-1.8,1.8l6.4,6.4l1.8-1.8
				c1.9-1.9,4.5-3,7.2-3c2.7,0,5.3,1.1,7.2,3l15.5,15.5c1.9,1.9,3,4.5,3,7.2c0,2.7-1.1,5.3-3,7.2l-15.5,15.5c-4,4-10.4,4-14.4,0
				l-1.8-1.8l-2-2l-6.4-6.4l-2-2l-8.7-8.7c-1-1-1-2.5,0-3.5l8.7-8.7l-6.4-6.4l-8.7,8.7c-4.5,4.5-4.5,11.8,0,16.4l8.7,8.7l2,2
				l6.4,6.4l2,2l1.8,1.8c3.6,3.6,8.5,5.6,13.6,5.6c5.1,0,10-2,13.6-5.6l15.5-15.5c3.6-3.6,5.6-8.5,5.6-13.6
				C1733.5,113.2,1731.5,108.3,1727.9,104.7z"/>
		</g>
	</g>
</g>
</svg>
